<?xml version="1.0" encoding="utf-8"?>
<!-- Generator: Adobe Illustrator 23.0.4, SVG Export Plug-In . SVG Version: 6.00 Build 0)  -->
<svg version="1.1" id="Capa_1" xmlns="http://www.w3.org/2000/svg" xmlns:xlink="http://www.w3.org/1999/xlink" x="0px" y="0px"
	 viewBox="0 0 32.7 32.7" style="enable-background:new 0 0 32.7 32.7;" xml:space="preserve">
<style type="text/css">
	.st0{fill:#FFFFFF;}
</style>
<g>
	<path class="st0" d="M21.5,4.5C21.5,7,19.5,9,17,9c-2.5,0-4.5-2-4.5-4.5C12.5,2,14.5,0,17,0S21.5,2,21.5,4.5z M17,27.7
		c-1.4,0-2.5,1.1-2.5,2.5c0,1.4,1.1,2.5,2.5,2.5c1.4,0,2.5-1.1,2.5-2.5C19.5,28.8,18.4,27.7,17,27.7z M31.5,17.4
		c0-0.9-0.7-1.6-1.6-1.6c-0.9,0-1.6,0.7-1.6,1.6c0,0.9,0.7,1.6,1.6,1.6C30.7,19,31.5,18.3,31.5,17.4z M7,17.4c0-1.6-1.3-2.9-2.9-2.9
		s-2.9,1.3-2.9,2.9c0,1.6,1.3,2.9,2.9,2.9S7,18.9,7,17.4z M27,7.4c-0.5-0.5-1.3-0.5-1.8,0c-0.5,0.5-0.5,1.3,0,1.8
		c0.5,0.5,1.3,0.5,1.8,0S27.5,7.9,27,7.4z M10,24.4c-1.2-1.1-3-1.1-4.2,0c-1.2,1.1-1.2,3,0,4.2s3,1.1,4.2,0
		C11.1,27.4,11.1,25.5,10,24.4z M27.3,27.6c0.7-0.7,0.7-1.7,0-2.4c-0.7-0.7-1.7-0.7-2.4,0c-0.7,0.7-0.7,1.7,0,2.4
		C25.5,28.3,26.6,28.3,27.3,27.6z M10,10.4c1.2-1.2,1.2-3.1,0-4.3c-1.2-1.2-3.1-1.2-4.3,0c-1.2,1.2-1.2,3.1,0,4.3S8.9,11.6,10,10.4z
		"/>
</g>
</svg>
